<svg width="35" height="24" viewBox="0 0 35 24" fill="none" xmlns="http://www.w3.org/2000/svg">
<path d="M6.88758 7.32566e-05H28.4683C28.8121 -0.00252794 29.1529 0.0641687 29.4702 0.196141C29.7874 0.328114 30.0745 0.522629 30.3141 0.767957C30.8022 1.27809 31.129 1.91946 31.2541 2.61258L34.9573 21.0305C34.9855 21.1723 34.9998 21.3166 35 21.4612C34.9951 21.7746 34.9273 22.084 34.8006 22.3711C34.6739 22.6582 34.4909 22.9172 34.2622 23.1329C33.8403 23.5454 33.3068 23.827 32.7269 23.9433C32.5394 23.9814 32.3485 24.0004 32.1571 24H10.8642C10.7901 24 10.716 24 10.6448 24H1.66332C0.418505 23.864 -0.0714473 22.9516 0.00831231 21.7473L3.4921 4.17952C3.69719 3.39463 3.88805 2.57291 4.13018 1.9127C4.16979 1.78857 4.2203 1.66815 4.28115 1.55284L4.29539 1.52451C4.41975 1.28472 4.58232 1.06655 4.7768 0.878465C5.18895 0.471988 5.70847 0.190021 6.27514 0.0652442C6.47641 0.0221443 6.6817 0.000299553 6.88758 7.32566e-05ZM13.8267 13.3176C12.4024 11.796 14.5844 9.53487 16.1596 10.9658C16.7151 11.4702 17.5241 12.2069 18.0853 12.7084L22.2043 7.62508C23.714 6.07798 26.0897 8.35046 24.6028 9.9089L19.3785 16.1511C19.0801 16.4627 18.672 16.6474 18.2398 16.6664C17.8076 16.6854 17.3847 16.5373 17.0598 16.2531C16.1397 15.3804 14.7809 14.1252 13.8238 13.3205L13.8267 13.3176ZM28.4683 1.8447H6.88758C6.81388 1.84478 6.74038 1.85238 6.66824 1.86736C6.45299 1.91516 6.25557 2.02218 6.09853 2.17622C5.99528 2.26584 5.93096 2.39178 5.91907 2.52757C6.36629 7.25105 8.81036 15.9528 9.90705 21.0106C9.96735 21.3512 10.1223 21.6683 10.3543 21.9259C10.4226 21.9961 10.5045 22.0519 10.5951 22.0899C10.6856 22.1279 10.783 22.1473 10.8813 22.1469H32.197C32.263 22.1459 32.3288 22.1393 32.3936 22.127C32.6171 22.082 32.8228 21.9738 32.9861 21.8153C33.0931 21.7205 33.1602 21.5889 33.1741 21.447V21.3762L29.4709 2.95827C29.4173 2.62257 29.2669 2.30957 29.038 2.05721C28.9688 1.98528 28.8857 1.92809 28.7936 1.88912C28.7016 1.85015 28.6025 1.83022 28.5024 1.83053L28.4683 1.8447Z" fill="white"/>
</svg>
