<svg width="20" height="20" viewBox="0 0 20 20" fill="none" xmlns="http://www.w3.org/2000/svg">
<path d="M10 0C7.35779 0.0320595 4.83284 1.09592 2.96438 2.96438C1.09592 4.83284 0.0320595 7.35779 0 10C0.0320595 12.6422 1.09592 15.1672 2.96438 17.0356C4.83284 18.9041 7.35779 19.9679 10 20C12.6422 19.9679 15.1672 18.9041 17.0356 17.0356C18.9041 15.1672 19.9679 12.6422 20 10C19.9679 7.35779 18.9041 4.83284 17.0356 2.96438C15.1672 1.09592 12.6422 0.0320595 10 0ZM15.7143 10.7143H10.7143V15.7143H9.28571V10.7143H4.28571V9.28571H9.28571V4.28571H10.7143V9.28571H15.7143V10.7143Z" fill="#EEA9FF"/>
</svg>
