<svg width="24" height="17" viewBox="0 0 24 17" fill="none" xmlns="http://www.w3.org/2000/svg">
<path d="M22.125 7.25151H3.79417L8.18042 1.98318C8.38552 1.73642 8.48419 1.41829 8.45473 1.09877C8.42527 0.779257 8.2701 0.484531 8.02333 0.27943C7.77657 0.074329 7.45844 -0.0243458 7.13893 0.00511306C6.81941 0.0345719 6.52468 0.189751 6.31958 0.436513L0.277917 7.68651C0.236442 7.74364 0.200052 7.80429 0.169167 7.86776C0.169167 7.92818 0.169167 7.96443 0.0845835 8.02485C0.029814 8.16339 0.00113719 8.31087 0 8.45985C0.00113719 8.60882 0.029814 8.7563 0.0845835 8.89485C0.0845835 8.95526 0.0845832 8.99151 0.169167 9.05193C0.200052 9.11541 0.236442 9.17606 0.277917 9.23318L6.31958 16.4832C6.43319 16.6196 6.57546 16.7293 6.73627 16.8045C6.89708 16.8796 7.07248 16.9185 7.25 16.9182C7.53233 16.9187 7.80594 16.8204 8.02333 16.6403C8.14569 16.5388 8.24683 16.4142 8.32096 16.2737C8.39509 16.1331 8.44077 15.9792 8.45536 15.821C8.46995 15.6627 8.45318 15.5031 8.406 15.3514C8.35882 15.1996 8.28216 15.0586 8.18042 14.9365L3.79417 9.66818H22.125C22.4455 9.66818 22.7528 9.54087 22.9794 9.31427C23.206 9.08766 23.3333 8.78032 23.3333 8.45985C23.3333 8.13938 23.206 7.83203 22.9794 7.60543C22.7528 7.37882 22.4455 7.25151 22.125 7.25151Z" fill="#929292"/>
</svg>
