<svg width="15" height="15" viewBox="0 0 15 15" fill="none" xmlns="http://www.w3.org/2000/svg">
<path fill-rule="evenodd" clip-rule="evenodd" d="M7.95 7.12725L10.8682 10.0455L10.2323 10.6823L7.05 7.5V3H7.95V7.12725ZM7.5 15C3.35775 15 0 11.6423 0 7.5C0 3.35775 3.35775 0 7.5 0C11.6423 0 15 3.35775 15 7.5C15 11.6423 11.6423 15 7.5 15ZM7.5 14.1C9.25043 14.1 10.9292 13.4046 12.1669 12.1669C13.4046 10.9292 14.1 9.25043 14.1 7.5C14.1 5.74957 13.4046 4.07084 12.1669 2.8331C10.9292 1.59535 9.25043 0.9 7.5 0.9C5.74957 0.9 4.07084 1.59535 2.8331 2.8331C1.59535 4.07084 0.9 5.74957 0.9 7.5C0.9 9.25043 1.59535 10.9292 2.8331 12.1669C4.07084 13.4046 5.74957 14.1 7.5 14.1Z" fill="#797979"/>
</svg>
