<svg width="19" height="19" viewBox="0 0 19 19" fill="none" xmlns="http://www.w3.org/2000/svg">
<path d="M0.64502 8.81419C0.64502 5.57142 0.645019 3.94961 1.65285 2.94264C2.66068 1.93567 4.28163 1.93481 7.52439 1.93481H10.9641C14.2068 1.93481 15.8287 1.93481 16.8356 2.94264C17.8426 3.95047 17.8435 5.57142 17.8435 8.81419V10.534C17.8435 13.7768 17.8435 15.3986 16.8356 16.4056C15.8278 17.4125 14.2068 17.4134 10.9641 17.4134H7.52439C4.28163 17.4134 2.65982 17.4134 1.65285 16.4056C0.645879 15.3977 0.64502 13.7768 0.64502 10.534V8.81419Z" stroke="black" stroke-width="1.28988"/>
<path d="M4.94484 1.93484V0.644958M13.5441 1.93484V0.644958M1.0752 6.23445H17.4137" stroke="black" stroke-width="1.28988" stroke-linecap="round"/>
<path d="M14.4035 13.1138C14.4035 13.3419 14.3129 13.5606 14.1517 13.7219C13.9904 13.8831 13.7717 13.9737 13.5436 13.9737C13.3155 13.9737 13.0968 13.8831 12.9356 13.7219C12.7743 13.5606 12.6837 13.3419 12.6837 13.1138C12.6837 12.8858 12.7743 12.667 12.9356 12.5058C13.0968 12.3445 13.3155 12.2539 13.5436 12.2539C13.7717 12.2539 13.9904 12.3445 14.1517 12.5058C14.3129 12.667 14.4035 12.8858 14.4035 13.1138ZM14.4035 9.67413C14.4035 9.9022 14.3129 10.1209 14.1517 10.2822C13.9904 10.4435 13.7717 10.5341 13.5436 10.5341C13.3155 10.5341 13.0968 10.4435 12.9356 10.2822C12.7743 10.1209 12.6837 9.9022 12.6837 9.67413C12.6837 9.44607 12.7743 9.22734 12.9356 9.06607C13.0968 8.90481 13.3155 8.81421 13.5436 8.81421C13.7717 8.81421 13.9904 8.90481 14.1517 9.06607C14.3129 9.22734 14.4035 9.44607 14.4035 9.67413ZM10.1039 13.1138C10.1039 13.3419 10.0133 13.5606 9.85206 13.7219C9.69079 13.8831 9.47207 13.9737 9.244 13.9737C9.01594 13.9737 8.79721 13.8831 8.63595 13.7219C8.47468 13.5606 8.38408 13.3419 8.38408 13.1138C8.38408 12.8858 8.47468 12.667 8.63595 12.5058C8.79721 12.3445 9.01594 12.2539 9.244 12.2539C9.47207 12.2539 9.69079 12.3445 9.85206 12.5058C10.0133 12.667 10.1039 12.8858 10.1039 13.1138ZM10.1039 9.67413C10.1039 9.9022 10.0133 10.1209 9.85206 10.2822C9.69079 10.4435 9.47207 10.5341 9.244 10.5341C9.01594 10.5341 8.79721 10.4435 8.63595 10.2822C8.47468 10.1209 8.38408 9.9022 8.38408 9.67413C8.38408 9.44607 8.47468 9.22734 8.63595 9.06607C8.79721 8.90481 9.01594 8.81421 9.244 8.81421C9.47207 8.81421 9.69079 8.90481 9.85206 9.06607C10.0133 9.22734 10.1039 9.44607 10.1039 9.67413ZM5.80432 13.1138C5.80432 13.3419 5.71372 13.5606 5.55245 13.7219C5.39118 13.8831 5.17246 13.9737 4.94439 13.9737C4.71633 13.9737 4.4976 13.8831 4.33634 13.7219C4.17507 13.5606 4.08447 13.3419 4.08447 13.1138C4.08447 12.8858 4.17507 12.667 4.33634 12.5058C4.4976 12.3445 4.71633 12.2539 4.94439 12.2539C5.17246 12.2539 5.39118 12.3445 5.55245 12.5058C5.71372 12.667 5.80432 12.8858 5.80432 13.1138ZM5.80432 9.67413C5.80432 9.9022 5.71372 10.1209 5.55245 10.2822C5.39118 10.4435 5.17246 10.5341 4.94439 10.5341C4.71633 10.5341 4.4976 10.4435 4.33634 10.2822C4.17507 10.1209 4.08447 9.9022 4.08447 9.67413C4.08447 9.44607 4.17507 9.22734 4.33634 9.06607C4.4976 8.90481 4.71633 8.81421 4.94439 8.81421C5.17246 8.81421 5.39118 8.90481 5.55245 9.06607C5.71372 9.22734 5.80432 9.44607 5.80432 9.67413Z" fill="black"/>
</svg>
