<svg width="27" height="27" viewBox="0 0 27 27" fill="none" xmlns="http://www.w3.org/2000/svg">
<circle cx="13.5" cy="13.5" r="13.5" fill="#EFEFEF"/>
<path d="M11.625 8.125H11.5C11.5687 8.125 11.625 8.06875 11.625 8V8.125ZM11.625 8.125H16.375V8C16.375 8.06875 16.4312 8.125 16.5 8.125H16.375V9.25H17.5V8C17.5 7.44844 17.0516 7 16.5 7H11.5C10.9484 7 10.5 7.44844 10.5 8V9.25H11.625V8.125ZM19.5 9.25H8.5C8.22344 9.25 8 9.47344 8 9.75V10.25C8 10.3187 8.05625 10.375 8.125 10.375H9.06875L9.45469 18.5469C9.47969 19.0797 9.92031 19.5 10.4531 19.5H17.5469C18.0813 19.5 18.5203 19.0813 18.5453 18.5469L18.9312 10.375H19.875C19.9438 10.375 20 10.3187 20 10.25V9.75C20 9.47344 19.7766 9.25 19.5 9.25ZM17.4266 18.375H10.5734L10.1953 10.375H17.8047L17.4266 18.375Z" fill="#6D6B6B"/>
</svg>
