<svg width="17" height="14" viewBox="0 0 17 14" fill="none" xmlns="http://www.w3.org/2000/svg">
<path d="M0.5 11.577V6.8591L8.5 0.500122H14.859C15.2942 0.500122 15.7116 0.673015 16.0194 0.980767C16.3271 1.28852 16.5 1.70592 16.5 2.14115V11.577C16.5 12.0123 16.3271 12.4297 16.0194 12.7374C15.7116 13.0452 15.2942 13.2181 14.859 13.2181H2.14103C1.7058 13.2181 1.2884 13.0452 0.980645 12.7374C0.672893 12.4297 0.5 12.0123 0.5 11.577Z" stroke="#6D6B6B" stroke-linecap="round" stroke-linejoin="round"/>
<path d="M6.95169 1.7309H2.14103C1.7058 1.7309 1.2884 1.90379 0.980645 2.21154C0.672893 2.51929 0.5 2.93669 0.5 3.37192V6.8591" stroke="#6D6B6B" stroke-linecap="round" stroke-linejoin="round"/>
<path d="M0.5 6.8591H6.85897C7.2942 6.8591 7.7116 6.6862 8.01935 6.37845C8.32711 6.0707 8.5 5.6533 8.5 5.21807V0.500122" stroke="#6D6B6B" stroke-linecap="round" stroke-linejoin="round"/>
<path d="M8.5 0.500122L6.74451 4.18628C6.65084 4.38307 6.51889 4.55923 6.35639 4.70447C6.19389 4.84972 6.00408 4.96114 5.79805 5.03222L0.5 6.8591" stroke="#6D6B6B" stroke-linecap="round" stroke-linejoin="round"/>
</svg>
