<svg width="24" height="23" viewBox="0 0 24 23" fill="none" xmlns="http://www.w3.org/2000/svg">
<path fill-rule="evenodd" clip-rule="evenodd" d="M13.559 9.82769C13.3297 9.60031 13.0532 9.42619 12.749 9.31769C12.1797 9.13922 11.5931 9.02189 10.999 8.9677C10.789 8.9677 10.569 8.9177 10.359 8.90769H10.189C10.6698 8.49991 11.0393 7.97692 11.2631 7.38759C11.487 6.79826 11.5578 6.16182 11.469 5.5377C11.3105 4.50471 10.7541 3.57476 9.91869 2.94682C9.0833 2.31888 8.03533 2.04281 6.999 2.1777C6.02917 2.17939 5.09533 2.54515 4.38234 3.20258C3.66935 3.86002 3.22919 4.76119 3.149 5.7277C3.13182 6.15546 3.20286 6.58218 3.35769 6.98131C3.51253 7.38043 3.74784 7.74343 4.049 8.0477C3.06853 9.47812 2.37286 11.0841 2 12.7777C1.82012 13.3531 1.76808 13.9609 1.84754 14.5585C1.92699 15.1562 2.13602 15.7293 2.46 16.2377H2.31C2.00872 16.2119 1.71764 16.116 1.46 15.9577V15.8177C1.3928 15.631 1.3524 15.4357 1.34 15.2377C1.29 14.8177 1.29 14.3877 1.27 14.1877L1 11.0267C0.94 10.2367 0.83 9.5067 0.76 8.7467C0.707398 8.24515 0.684025 7.74096 0.69 7.2367C0.69 7.15978 0.659447 7.08602 0.605061 7.03163C0.550675 6.97725 0.476913 6.94669 0.4 6.94669C0.323087 6.94669 0.249325 6.97725 0.194939 7.03163C0.140553 7.08602 0.11 7.15978 0.11 7.2367C0.0449977 7.74795 0.00827517 8.26239 0 8.77769L0 11.0877C0 11.8577 0 12.3677 0.05 13.0077C0.0653333 13.4457 0.105333 13.8824 0.17 14.3177C0.21 14.833 0.29 15.343 0.41 15.8477C0.483 16.1647 0.659 16.4497 0.91 16.6577C1.118 16.7777 1.345 16.8617 1.58 16.9077L1.16 18.3577C1.08 18.6277 1.02 18.8977 0.96 19.1767C0.9 19.4567 0.86 19.7367 0.82 20.0167C0.73 20.6767 0.66 21.3367 0.59 22.0167C0.573961 22.0613 0.567704 22.1088 0.571656 22.156C0.575607 22.2032 0.589674 22.249 0.6129 22.2902C0.636126 22.3315 0.667967 22.3673 0.706259 22.3952C0.744551 22.4231 0.788396 22.4424 0.834816 22.4518C0.881235 22.4613 0.92914 22.4606 0.975276 22.4499C1.02141 22.4391 1.0647 22.4186 1.10219 22.3896C1.13968 22.3607 1.1705 22.324 1.19255 22.2821C1.21461 22.2402 1.22738 22.194 1.23 22.1467C1.43 21.5067 1.65 20.8867 1.84 20.2467C1.92 19.9667 1.99 19.6967 2.05 19.4167C2.11533 19.1367 2.16533 18.8534 2.2 18.5667C2.26 18.0467 2.27 17.5667 2.28 17.0067H3.68C4.08 17.0067 4.36 17.1667 4.68 17.2367C5.19405 17.2824 5.68548 17.4693 6.1 17.7767C6.262 17.9167 6.40533 18.0734 6.53 18.2467C6.67 18.4367 6.78 18.6367 6.9 18.8367C7.16 19.3567 7.45 21.2267 8.04 21.9867C8.13294 22.1204 8.25152 22.2344 8.38885 22.3219C8.52618 22.4095 8.67953 22.4689 8.84 22.4967C9.06507 22.5223 9.29295 22.4908 9.50265 22.4051C9.71236 22.3195 9.89715 22.1825 10.04 22.0067C10.7448 21.0326 11.0974 19.8477 11.04 18.6467C11.1185 17.4835 10.828 16.3252 10.21 15.3367C10.006 15.0839 9.75461 14.8733 9.47 14.7167C8.97 14.4367 8.4 14.3367 7.89 14.0567C7.85678 13.4438 7.85678 12.8296 7.89 12.2167C7.91181 12.155 7.9148 12.0882 7.89857 12.0249C7.88235 11.9615 7.84765 11.9043 7.79889 11.8607C7.75013 11.8171 7.6895 11.789 7.6247 11.7799C7.55991 11.7708 7.49388 11.7812 7.435 11.8097C7.35452 11.8468 7.29173 11.9139 7.26 11.9967C7.26 12.0967 7.18 13.5167 7.18 14.0867C7.17625 14.2747 7.24418 14.457 7.37 14.5967C7.92 14.9567 8.55 15.0867 9.1 15.4167C9.28933 15.532 9.44933 15.6787 9.58 15.8567C10.0379 16.7033 10.223 17.6708 10.11 18.6267C10.1487 19.5594 9.87414 20.4782 9.33 21.2367C9.22 21.3467 9.14 21.4267 9.05 21.4267C8.96 21.4267 9 21.4267 8.98 21.3567C8.89762 21.2534 8.83029 21.1389 8.78 21.0167C8.36 20.1467 8.14 18.7567 7.92 18.3267C7.78567 18.0719 7.63188 17.8278 7.46 17.5967C7.28587 17.3514 7.08085 17.1296 6.85 16.9367C6.61029 16.7381 6.34016 16.5794 6.05 16.4667C5.53389 16.2961 5.00076 16.1821 4.46 16.1267C4.03737 16.0966 3.63025 15.9551 3.28 15.7167C2.63 15.1867 2.61 14.1067 2.8 12.9667C3.06315 11.3611 3.63722 9.82232 4.49 8.4367C5.17375 8.90683 5.97194 9.18326 6.8 9.2367C6.83757 9.2423 6.87589 9.2402 6.91263 9.23052C6.94936 9.22084 6.98374 9.20379 7.01368 9.1804C7.04361 9.15702 7.06848 9.12778 7.08676 9.09448C7.10503 9.06118 7.11635 9.02451 7.12 8.9867C7.1256 8.94912 7.1235 8.9108 7.11382 8.87407C7.10415 8.83733 7.0871 8.80295 7.06371 8.77302C7.04032 8.74308 7.01109 8.71822 6.97779 8.69994C6.94448 8.68166 6.90781 8.67035 6.87 8.66669C4.84 8.33669 4 7.0467 4.06 5.7867C4.16107 5.07219 4.52401 4.42072 5.07838 3.95875C5.63274 3.49678 6.33898 3.25726 7.06 3.2867C7.83328 3.15798 8.62622 3.33705 9.26914 3.7856C9.91205 4.23414 10.3539 4.91652 10.5 5.6867C10.6377 6.48137 10.4583 7.29837 10.0002 7.96216C9.54206 8.62596 8.84186 9.08357 8.05 9.2367C8.00684 9.24611 7.966 9.26409 7.92992 9.28958C7.89383 9.31506 7.86323 9.34753 7.83993 9.38507C7.81663 9.4226 7.8011 9.46443 7.79427 9.50808C7.78744 9.55172 7.78944 9.5963 7.80015 9.63916C7.81087 9.68202 7.83008 9.72229 7.85665 9.75758C7.88321 9.79288 7.9166 9.82248 7.95482 9.84463C7.99304 9.86679 8.03533 9.88104 8.07916 9.88655C8.12299 9.89205 8.16749 9.8887 8.21 9.87669C8.55296 9.79835 8.88777 9.68786 9.21 9.54669L10.09 9.6567C10.3347 9.6867 10.5747 9.73669 10.81 9.80669C11.342 9.93736 11.8587 10.114 12.36 10.3367C12.5236 10.3881 12.667 10.4895 12.77 10.6267C12.77 10.6767 12.77 10.7167 12.66 10.7967L12.41 11.0167L11.87 11.2967C11.4554 11.4407 11.0189 11.5117 10.58 11.5067C9.82 11.5067 9.04 11.4367 8.38 11.4267C8.33663 11.4226 8.29287 11.4271 8.25125 11.4399C8.20963 11.4528 8.17097 11.4738 8.1375 11.5017C8.10404 11.5296 8.07642 11.5638 8.05625 11.6024C8.03609 11.6411 8.02377 11.6833 8.02 11.7267C8.01729 11.77 8.02317 11.8135 8.0373 11.8546C8.05142 11.8957 8.07352 11.9335 8.10232 11.9661C8.13113 11.9986 8.16606 12.0251 8.20513 12.0441C8.2442 12.0631 8.28664 12.0741 8.33 12.0767C9.11 12.1767 10.07 12.3967 10.95 12.4267C11.374 12.4267 11.795 12.3627 12.2 12.2367C12.3133 12.2067 12.4233 12.1667 12.53 12.1167C12.69 12.0547 12.8433 11.978 12.99 11.8867L13.51 11.4467C14 10.6567 13.9 10.1767 13.56 9.8267M21.099 5.2377C21.0203 5.20217 20.9311 5.1979 20.8494 5.22575C20.7676 5.25361 20.6996 5.3115 20.659 5.3877C20.499 5.6977 20.349 6.0177 20.209 6.3377C20.019 6.80769 19.849 7.33769 19.689 7.77769C19.529 8.21769 19.409 8.5677 19.299 8.9677C19.219 9.24703 19.159 9.53036 19.119 9.81769L19.069 10.4677H18.199C17.469 10.5477 16.739 10.6277 15.999 10.7477C15.259 10.8677 15.109 10.8777 14.399 11.0377C13.689 11.1977 13.949 11.7077 14.259 11.6377C14.839 11.5777 15.079 11.6377 15.659 11.6377C16.519 11.6377 17.379 11.5777 18.239 11.6377H19.469C19.5978 11.6341 19.7232 11.596 19.8323 11.5274C19.9414 11.4588 20.03 11.3622 20.089 11.2477C20.141 11.095 20.171 10.9384 20.179 10.7777V10.0077C20.1943 9.75836 20.2243 9.5117 20.269 9.2677C20.339 8.8777 20.439 8.48769 20.529 8.10769C20.619 7.72769 20.759 7.1077 20.899 6.6577C20.999 6.3477 21.109 6.0477 21.229 5.7477C21.263 5.70865 21.287 5.66196 21.2989 5.61161C21.3109 5.56127 21.3104 5.50877 21.2977 5.45863C21.2849 5.40848 21.2601 5.36219 21.2255 5.32371C21.1909 5.28523 21.1475 5.25571 21.099 5.2377Z" fill="#B77EC9"/>
<path fill-rule="evenodd" clip-rule="evenodd" d="M23.6791 12.9067C22.3191 12.7767 20.9691 12.6667 19.6091 12.6367H17.8591C17.2791 12.6367 16.6891 12.6367 16.1091 12.7367C14.7591 12.8667 13.4191 13.0967 12.1091 13.3267C12.0422 13.3444 11.9838 13.3854 11.9446 13.4424C11.9053 13.4994 11.8877 13.5686 11.8949 13.6374C11.9021 13.7062 11.9338 13.7702 11.9841 13.8177C12.0343 13.8653 12.1 13.8933 12.1691 13.8967C13.7191 13.8167 15.2491 13.8167 16.7791 13.7867H17.4591C17.3791 14.5167 17.2791 15.2367 17.2591 15.9667V17.5067C17.2591 18.1667 17.3591 18.8167 17.4091 19.5067C17.0875 19.5251 16.769 19.5787 16.4591 19.6667C15.6237 19.9351 14.8418 20.348 14.1491 20.8867C14.0863 20.9295 14.0414 20.9939 14.023 21.0676C14.0045 21.1414 14.0138 21.2193 14.0491 21.2867C14.0904 21.3513 14.1548 21.3977 14.2292 21.4163C14.3036 21.4349 14.3823 21.4243 14.4491 21.3867C15.1594 21.0519 15.9136 20.8196 16.6891 20.6967C17.0044 20.6467 17.3211 20.6167 17.6391 20.6067C17.9524 20.582 18.2658 20.582 18.5791 20.6067C19.3391 20.7082 20.0668 20.9781 20.7091 21.3967C20.7794 21.4497 20.8679 21.4727 20.9551 21.4605C21.0423 21.4483 21.1211 21.402 21.1741 21.3317C21.2272 21.2614 21.2501 21.1729 21.2379 21.0857C21.2257 20.9985 21.1794 20.9197 21.1091 20.8667C20.4498 20.2546 19.6494 19.8149 18.7791 19.5867C18.5664 19.5296 18.3488 19.4928 18.1291 19.4767C18.2091 18.8467 18.2691 18.2067 18.3091 17.5767V15.5767C18.2591 14.9467 18.1791 14.3267 18.1091 13.7067H19.0591L21.3691 13.5967H23.6691C23.7151 13.5969 23.7606 13.5874 23.8027 13.569C23.8449 13.5506 23.8827 13.5236 23.9137 13.4897C23.9448 13.4558 23.9685 13.4158 23.9832 13.3722C23.9979 13.3286 24.0033 13.2825 23.9991 13.2367C23.9992 13.1509 23.9658 13.0684 23.906 13.0068C23.8463 12.9452 23.7649 12.9093 23.6791 12.9067ZM16.4991 3.14767C16.2771 3.11347 16.0511 3.11347 15.8291 3.14767C15.5982 3.16186 15.3715 3.21599 15.1591 3.30767C14.6723 3.52311 14.2662 3.88718 13.9991 4.34767C13.9563 4.40791 13.9378 4.48215 13.9476 4.55543C13.9573 4.6287 13.9945 4.69556 14.0516 4.74251C14.1087 4.78945 14.1815 4.813 14.2552 4.80839C14.329 4.80378 14.3983 4.77136 14.4491 4.71767C14.7598 4.48256 15.1309 4.3404 15.5191 4.30767L15.9991 4.23767C16.1624 4.22767 16.3258 4.22767 16.4891 4.23767C16.8847 4.1956 17.2846 4.24345 17.6591 4.37767C17.6942 4.40124 17.7337 4.41739 17.7753 4.42512C17.8168 4.43286 17.8595 4.43201 17.9007 4.42265C17.9419 4.41328 17.9808 4.39559 18.0149 4.37066C18.049 4.34573 18.0777 4.31409 18.0991 4.27767C18.1231 4.24102 18.1396 4.19995 18.1476 4.15686C18.1556 4.11377 18.1549 4.06953 18.1456 4.02671C18.1363 3.98389 18.1185 3.94335 18.0934 3.90746C18.0682 3.87157 18.0362 3.84105 17.9991 3.81767C17.5693 3.46222 17.0507 3.2306 16.4991 3.14767ZM12.7691 2.44767C13.4988 1.91821 14.3292 1.54385 15.2091 1.34767C15.7733 1.19197 16.3541 1.10468 16.9391 1.08767C17.8983 1.00653 18.8526 1.29245 19.6091 1.88767C19.6398 1.91882 19.6764 1.94355 19.7167 1.96042C19.7571 1.9773 19.8004 1.986 19.8441 1.986C19.8878 1.986 19.9311 1.9773 19.9715 1.96042C20.0118 1.94355 20.0484 1.91882 20.0791 1.88767C20.1367 1.82494 20.1687 1.74286 20.1687 1.65767C20.1687 1.57249 20.1367 1.49041 20.0791 1.42767C19.3829 0.650558 18.4257 0.155957 17.3891 0.0376741C16.9505 -0.012558 16.5077 -0.012558 16.0691 0.0376741C15.6425 0.095861 15.2235 0.199793 14.8191 0.347674C13.8831 0.704389 13.0463 1.28052 12.3791 2.02767C12.3248 2.08205 12.2942 2.15579 12.2942 2.23267C12.2942 2.30956 12.3248 2.38329 12.3791 2.43767C12.4323 2.48556 12.5008 2.51289 12.5723 2.51472C12.6438 2.51656 12.7136 2.49278 12.7691 2.44767Z" fill="#B77EC9"/>
</svg>
