<svg width="28" height="22" viewBox="0 0 28 22" fill="none" xmlns="http://www.w3.org/2000/svg">
<path d="M5.95605 12.0615H15.4854C17.0251 12.0615 18.502 12.6739 19.5908 13.7627C20.6793 14.8514 21.2909 16.3277 21.291 17.8672C21.291 18.7752 20.9301 19.6461 20.2881 20.2881C19.6461 20.9301 18.7752 21.291 17.8672 21.291H3.57324C2.66537 21.2909 1.79431 20.9301 1.15234 20.2881C0.510539 19.6461 0.150391 18.775 0.150391 17.8672C0.150511 16.3276 0.761988 14.8514 1.85059 13.7627C2.9394 12.6739 4.41624 12.0615 5.95605 12.0615ZM10.7207 0.150391C11.9446 0.150422 13.118 0.636556 13.9834 1.50195C14.8488 2.36736 15.3349 3.54079 15.335 4.76465C15.335 5.9885 14.8488 7.16193 13.9834 8.02734C13.118 8.89274 11.9446 9.37985 10.7207 9.37988C9.49681 9.37988 8.32246 8.89277 7.45703 8.02734C6.59189 7.16196 6.10547 5.98833 6.10547 4.76465C6.10548 3.54096 6.59187 2.36733 7.45703 1.50195C8.32246 0.636528 9.49681 0.150391 10.7207 0.150391Z" fill="white" stroke="#4E4E4E" stroke-width="0.3"/>
<path d="M11.9121 12.0615H21.4414C22.9812 12.0615 24.4581 12.6739 25.5469 13.7627C26.6354 14.8514 27.247 16.3277 27.2471 17.8672C27.2471 18.7752 26.8862 19.6461 26.2441 20.2881C25.6021 20.9301 24.7312 21.291 23.8232 21.291H9.5293C8.62142 21.2909 7.75037 20.9301 7.1084 20.2881C6.46659 19.6461 6.10645 18.775 6.10645 17.8672C6.10657 16.3276 6.71804 14.8514 7.80664 13.7627C8.89545 12.6739 10.3723 12.0615 11.9121 12.0615ZM16.6768 0.150391C17.9006 0.150422 19.0741 0.636556 19.9395 1.50195C20.8048 2.36736 21.291 3.54079 21.291 4.76465C21.291 5.9885 20.8048 7.16193 19.9395 8.02734C19.0741 8.89274 17.9006 9.37985 16.6768 9.37988C15.4529 9.37988 14.2785 8.89277 13.4131 8.02734C12.5479 7.16196 12.0615 5.98833 12.0615 4.76465C12.0615 3.54096 12.5479 2.36733 13.4131 1.50195C14.2785 0.636528 15.4529 0.150391 16.6768 0.150391Z" fill="white" stroke="#4E4E4E" stroke-width="0.3"/>
</svg>
