<svg width="22" height="17" viewBox="0 0 22 17" fill="none" xmlns="http://www.w3.org/2000/svg">
<path d="M21.3874 4.7966C21.3467 4.7559 21.2974 4.72487 21.2431 4.70582C21.1887 4.68677 21.1308 4.68019 21.0736 4.68656L17.4357 5.09072C17.3638 5.0987 17.2957 5.12682 17.2391 5.17184C17.1825 5.21685 17.1398 5.27693 17.1158 5.34516C17.0919 5.41339 17.0877 5.48699 17.1038 5.55749C17.1198 5.62798 17.1555 5.69252 17.2066 5.74365L17.7394 6.2766L12.0333 11.9828L9.07101 9.02049C9.00157 8.95116 8.90824 8.91102 8.81016 8.9083C8.71207 8.90558 8.61666 8.94049 8.54349 9.00587L0.863464 15.8775C0.794616 15.939 0.750243 16.0232 0.73848 16.1148C0.726718 16.2064 0.748354 16.2991 0.799423 16.376C0.850491 16.4529 0.927569 16.5088 1.01652 16.5335C1.10548 16.5582 1.20035 16.55 1.28374 16.5104L8.71932 12.9883L11.7619 16.0308C11.8352 16.1002 11.9324 16.1388 12.0333 16.1388C12.1343 16.1388 12.2314 16.1002 12.3048 16.0308L19.8993 8.43617L20.4404 8.97738C20.4915 9.02849 20.5561 9.06412 20.6266 9.08017C20.6971 9.09622 20.7707 9.09204 20.8389 9.06811C20.9072 9.04417 20.9672 9.00146 21.0123 8.94488C21.0573 8.88831 21.0855 8.82016 21.0935 8.7483L21.4976 5.1104C21.504 5.05318 21.4973 4.99528 21.4782 4.94096C21.4592 4.88665 21.4281 4.83732 21.3874 4.7966ZM20.4186 7.86949L20.1708 7.62186C20.1351 7.5862 20.0928 7.55791 20.0463 7.53861C19.9997 7.51931 19.9498 7.50938 19.8993 7.50938C19.8489 7.50938 19.799 7.51931 19.7524 7.53861C19.7059 7.55791 19.6635 7.5862 19.6279 7.62186L12.0333 15.2165L9.07101 12.2542C9.03537 12.2186 8.99305 12.1903 8.94648 12.171C8.89991 12.1517 8.84999 12.1417 8.79957 12.1417C8.74274 12.1416 8.68662 12.1543 8.63535 12.1788L3.35184 14.6811L8.78494 9.82021L11.7619 12.7971C11.8352 12.8665 11.9324 12.9051 12.0333 12.9051C12.1343 12.9051 12.2314 12.8665 12.3048 12.7971L18.5537 6.54806C18.5894 6.51242 18.6176 6.4701 18.6369 6.42353C18.6562 6.37695 18.6662 6.32703 18.6662 6.27662C18.6662 6.2262 18.6562 6.17628 18.6369 6.1297C18.6176 6.08313 18.5894 6.04081 18.5537 6.00517L18.3141 5.7656L20.6814 5.50259L20.4186 7.86949Z" fill="#B77FC9"/>
<path d="M12.6327 10.0219C12.7308 10.0486 12.8356 10.0355 12.9241 9.98536C13.0125 9.93522 13.0776 9.85212 13.1051 9.7542C13.2149 9.35181 13.2699 8.93646 13.2686 8.51938C13.2693 7.77521 13.0968 7.04108 12.765 6.375C12.4331 5.70891 11.9509 5.12913 11.3564 4.68147C10.762 4.2338 10.0715 3.93052 9.33969 3.79559C8.60784 3.66065 7.85464 3.69776 7.13961 3.90398C6.42457 4.1102 5.76729 4.47988 5.2197 4.98381C4.67211 5.48774 4.24922 6.11211 3.98445 6.80759C3.71967 7.50307 3.62026 8.25059 3.69408 8.99109C3.76789 9.73159 4.01291 10.4448 4.40977 11.0743C4.43675 11.1169 4.47185 11.1538 4.51308 11.1828C4.55431 11.2118 4.60085 11.2324 4.65004 11.2435C4.69924 11.2545 4.75013 11.2558 4.79981 11.2471C4.84948 11.2385 4.89697 11.2202 4.93957 11.1932C4.98216 11.1662 5.01903 11.1311 5.04805 11.0899C5.07708 11.0487 5.0977 11.0021 5.10874 10.9529C5.11978 10.9037 5.12103 10.8528 5.1124 10.8032C5.10377 10.7535 5.08545 10.706 5.05847 10.6634C3.35296 8.05394 5.34871 4.4357 8.4695 4.48819C9.53828 4.48939 10.5629 4.91449 11.3187 5.67022C12.0744 6.42596 12.4995 7.45061 12.5007 8.51938C12.502 8.86729 12.4563 9.21378 12.365 9.54949C12.3379 9.64763 12.3508 9.75254 12.401 9.84113C12.4512 9.92972 12.5346 9.99474 12.6327 10.0219Z" fill="#B77FC9"/>
<path d="M1.73166 10.3237C1.88105 10.8839 2.10305 11.4221 2.39201 11.9247L1.70095 12.6119C1.34185 12.9336 1.42188 13.7128 1.95434 13.7598C2.02399 13.7593 2.0921 13.7392 2.15088 13.7018C2.20967 13.6644 2.25676 13.6113 2.28679 13.5484C2.31681 13.4856 2.32856 13.4156 2.32069 13.3463C2.31282 13.2771 2.28565 13.2115 2.24228 13.157L3.14835 12.2586C3.21008 12.1972 3.24904 12.1166 3.25881 12.03C3.26858 11.9435 3.24858 11.8562 3.2021 11.7826C2.82759 11.191 2.55868 10.5389 2.40737 9.85528C2.38769 9.77021 2.33979 9.69431 2.27147 9.63994C2.20315 9.58556 2.11844 9.55592 2.03112 9.55582L0.768003 9.57502L0.748807 7.37898H2.03112C2.11899 7.3788 2.20417 7.34864 2.27258 7.29349C2.34099 7.23835 2.38854 7.16151 2.40737 7.07568C2.55638 6.39797 2.82414 5.75198 3.19826 5.16758C3.24532 5.09438 3.26603 5.00733 3.25695 4.92078C3.24788 4.83423 3.20957 4.75336 3.14835 4.69152L2.24612 3.80465L3.77799 2.24977C3.88159 2.3289 4.7118 3.25269 4.83763 3.24797C4.88124 3.26319 4.92742 3.26967 4.97353 3.26703C5.01965 3.2644 5.06479 3.2527 5.10638 3.23261C5.70547 2.8515 6.36498 2.57498 7.05673 2.41485C7.14695 2.4003 7.22901 2.35402 7.28814 2.28434C7.34726 2.21466 7.37956 2.12615 7.37923 2.03477L7.36387 0.767823L9.55225 0.756305V2.03861C9.55243 2.12648 9.58258 2.21166 9.63773 2.28007C9.69288 2.34848 9.76972 2.39603 9.85556 2.41485C10.5375 2.56186 11.1876 2.82971 11.7752 3.20573C11.8489 3.25404 11.9372 3.2751 12.0248 3.26529C12.1124 3.25548 12.1939 3.21541 12.2551 3.15199L13.1305 2.24977L14.6892 3.77778L13.787 4.69152C13.7259 4.75265 13.6876 4.83287 13.6785 4.91881C13.6694 5.00474 13.6901 5.09119 13.7371 5.16374C14.1055 5.75569 14.374 6.40422 14.5318 7.08336C14.5513 7.16746 14.5988 7.24247 14.6664 7.29615C14.734 7.34984 14.8178 7.37903 14.9042 7.37898C15.2357 7.36944 15.7515 7.47922 15.7757 6.99508C15.7687 6.66903 15.4737 6.58142 15.2036 6.61115C15.0489 6.05524 14.8272 5.52021 14.5433 5.01787L15.2343 4.32297C15.3745 4.18151 15.4532 3.9904 15.4532 3.79124C15.4532 3.59208 15.3745 3.40097 15.2343 3.25951L13.6718 1.70078C13.5284 1.56334 13.3371 1.48725 13.1385 1.48868C12.9399 1.49012 12.7496 1.56896 12.6083 1.70846L11.9249 2.39568C11.4201 2.10848 10.8808 1.88659 10.3201 1.73533V0.756329C10.3205 0.556256 10.2415 0.364183 10.1004 0.22235C9.95932 0.0805174 9.76765 0.000537964 9.56757 0H7.36383C7.16376 0.000538981 6.97209 0.0805187 6.83097 0.222351C6.68986 0.364184 6.61085 0.556256 6.61133 0.756329V1.73533C6.0509 1.88393 5.51258 2.10597 5.01036 2.39568L4.31929 1.70078C4.17687 1.56196 3.98565 1.48459 3.78677 1.48531C3.58788 1.48603 3.39723 1.56478 3.25581 1.70462L1.70475 3.25567C1.63394 3.32483 1.57761 3.40739 1.53903 3.49855C1.50045 3.5897 1.4804 3.68762 1.48004 3.7866C1.47969 3.88558 1.49903 3.98364 1.53695 4.07506C1.57487 4.16649 1.6306 4.24946 1.70091 4.31913L2.39198 5.01785C2.1027 5.51757 1.88066 6.05329 1.73162 6.61113H0.748769C0.549297 6.61248 0.358493 6.69284 0.218164 6.83461C0.0778347 6.97638 -0.000576475 7.16799 0.000110856 7.36746V9.57502C-0.00275924 9.73511 0.0501795 9.89121 0.149842 10.0165C0.218212 10.1115 0.308165 10.1889 0.412294 10.2423C0.516422 10.2957 0.631746 10.3236 0.748769 10.3237L1.73166 10.3237Z" fill="#B77FC9"/>
<path d="M8.46938 5.83319C8.41895 5.83318 8.36902 5.8431 8.32244 5.86239C8.27585 5.88168 8.23352 5.90996 8.19787 5.94561C8.16222 5.98126 8.13394 6.02359 8.11465 6.07018C8.09536 6.11676 8.08544 6.16669 8.08545 6.21711V8.05481C8.08544 8.10523 8.09536 8.15516 8.11465 8.20174C8.13394 8.24833 8.16222 8.29066 8.19787 8.32631C8.23352 8.36196 8.27585 8.39024 8.32244 8.40953C8.36902 8.42882 8.41895 8.43874 8.46938 8.43873H10.7501C10.8519 8.43873 10.9495 8.39828 11.0215 8.32628C11.0935 8.25428 11.134 8.15663 11.134 8.05481C11.134 7.95298 11.0935 7.85533 11.0215 7.78333C10.9495 7.71133 10.8519 7.67088 10.7501 7.67088H8.8533V6.21711C8.85332 6.16669 8.8434 6.11676 8.82411 6.07018C8.80482 6.02359 8.77654 5.98126 8.74088 5.94561C8.70523 5.90996 8.6629 5.88168 8.61631 5.86239C8.56973 5.8431 8.5198 5.83318 8.46938 5.83319Z" fill="#B77FC9"/>
</svg>
