<svg width="35" height="41" viewBox="0 0 35 41" fill="none" xmlns="http://www.w3.org/2000/svg">
<path fill-rule="evenodd" clip-rule="evenodd" d="M12.978 21.1539C12.4997 21.1539 12.1132 20.692 12.1132 20.1253C12.1132 19.5554 12.4997 19.0968 12.978 19.0968H24.4066C24.8848 19.0968 25.2713 19.5587 25.2713 20.1253C25.2713 20.6953 24.8848 21.1539 24.4066 21.1539H12.978ZM15.32 38.187C15.89 38.187 16.3518 38.6489 16.3518 39.2189C16.3518 39.7888 15.89 40.2507 15.32 40.2507H2.40102C1.73935 40.2507 1.13991 39.9821 0.704256 39.5464C0.2686 39.1108 0 38.5113 0 37.8497V2.40102C0 1.73935 0.2686 1.13991 0.704256 0.704256C1.13991 0.2686 1.73935 0 2.40102 0H31.8881C32.5497 0 33.1492 0.271876 33.5848 0.704256C34.0205 1.13991 34.2891 1.73935 34.2891 2.40102V18.8249C34.2891 19.3949 33.8272 19.8567 33.2573 19.8567C32.6873 19.8567 32.2254 19.3949 32.2254 18.8249V2.40102C32.2254 2.3093 32.1861 2.22414 32.1239 2.16518C32.0617 2.10294 31.9798 2.06363 31.8881 2.06363H2.40102C2.3093 2.06363 2.22414 2.10294 2.1619 2.1619C2.10294 2.22741 2.06363 2.3093 2.06363 2.40102V37.8464C2.06363 37.9381 2.10294 38.0233 2.1619 38.0822C2.22414 38.1445 2.3093 38.1838 2.40102 38.1838H15.32V38.187ZM32.3303 24.3509C32.1632 24.1904 31.9699 24.115 31.7472 24.1183C31.5245 24.1216 31.3345 24.2068 31.1772 24.3738L29.8965 25.707L33.4898 29.1758L34.7837 27.8296C34.9376 27.6723 35.0032 27.4693 34.9999 27.2465C34.9966 27.0271 34.918 26.8272 34.7608 26.6766L32.3303 24.3509ZM25.6185 37.3452C25.1436 37.4959 24.6719 37.6531 24.2002 37.8071C23.7252 37.9643 23.2535 38.1248 22.7819 38.282C21.6649 38.6489 21.0392 38.852 20.9082 38.888C20.7805 38.9273 20.8558 38.4032 21.1375 37.3125L22.0252 33.8895L28.7566 26.8862L32.3466 30.342L25.6185 37.3452ZM12.978 28.4814C12.4997 28.4814 12.1099 28.013 12.1099 27.4365C12.1099 26.86 12.4997 26.3916 12.978 26.3916H18.6087C19.087 26.3916 19.4768 26.86 19.4768 27.4365C19.4768 28.013 19.087 28.4814 18.6087 28.4814H12.978ZM12.978 13.8427C12.4997 13.8427 12.1132 13.3809 12.1132 12.8142C12.1132 12.2442 12.4997 11.7856 12.978 11.7856H24.4066C24.8848 11.7856 25.2713 12.2475 25.2713 12.8142C25.2713 13.3841 24.8848 13.8427 24.4066 13.8427H12.978ZM8.01869 26.028C8.69347 26.028 9.23722 26.575 9.23722 27.2465C9.23722 27.9213 8.69019 28.465 8.01869 28.465C7.34392 28.465 6.80016 27.918 6.80016 27.2465C6.80016 26.575 7.34719 26.028 8.01869 26.028ZM8.01869 18.8151C8.69347 18.8151 9.23722 19.3621 9.23722 20.0336C9.23722 20.7084 8.69019 21.2521 8.01869 21.2521C7.34392 21.2521 6.80016 20.7051 6.80016 20.0336C6.80016 19.3621 7.34719 18.8151 8.01869 18.8151ZM8.01869 11.6022C8.69347 11.6022 9.23722 12.1492 9.23722 12.8207C9.23722 13.4955 8.69019 14.0393 8.01869 14.0393C7.34392 14.0393 6.80016 13.4922 6.80016 12.8207C6.80016 12.146 7.34719 11.6022 8.01869 11.6022Z" fill="#C38DD5"/>
</svg>
