<svg width="25" height="13" viewBox="0 0 25 13" fill="none" xmlns="http://www.w3.org/2000/svg">
<path d="M11.1226 12.3584H6.17922C4.46964 12.3584 3.01258 11.7558 1.80804 10.5504C0.603505 9.34504 0.00082474 7.88798 8.4358e-07 6.17922C-0.000823053 4.47046 0.601857 3.0134 1.80804 1.80804C3.01423 0.602681 4.47129 0 6.17922 0H11.1226V2.47169H6.17922C5.14935 2.47169 4.27396 2.83214 3.55305 3.55305C2.83214 4.27396 2.47169 5.14935 2.47169 6.17922C2.47169 7.20909 2.83214 8.08448 3.55305 8.80539C4.27396 9.5263 5.14935 9.88676 6.17922 9.88676H11.1226V12.3584ZM7.41507 7.41507V4.94338H17.3018V7.41507H7.41507ZM13.5943 12.3584V9.88676H18.5377C19.5675 9.88676 20.4429 9.5263 21.1638 8.80539C21.8847 8.08448 22.2452 7.20909 22.2452 6.17922C22.2452 5.14935 21.8847 4.27396 21.1638 3.55305C20.4429 2.83214 19.5675 2.47169 18.5377 2.47169H13.5943V0H18.5377C20.2473 0 21.7047 0.602681 22.9101 1.80804C24.1154 3.0134 24.7177 4.47046 24.7169 6.17922C24.7161 7.88798 24.1134 9.34546 22.9088 10.5516C21.7043 11.7578 20.2473 12.3601 18.5377 12.3584H13.5943Z" fill="black"/>
</svg>
