<svg width="23" height="24" viewBox="0 0 23 24" fill="none" xmlns="http://www.w3.org/2000/svg">
<path d="M0.727298 12.6535L10.7384 2.64241C11.9648 1.41598 13.6282 0.726979 15.3626 0.726979C17.0971 0.726979 18.7605 1.41598 19.9869 2.64241C21.2133 3.86885 21.9023 5.53225 21.9023 7.26668C21.9023 9.00112 21.2133 10.6645 19.9869 11.891L9.97583 21.902C9.15821 22.7197 8.04928 23.179 6.89299 23.179C5.7367 23.179 4.62776 22.7197 3.81014 21.902C2.99252 21.0844 2.53319 19.9755 2.53319 18.8192C2.53319 17.6629 2.99252 16.554 3.81014 15.7363L13.8321 5.72526C14.0345 5.52284 14.2748 5.36227 14.5393 5.25272C14.8038 5.14317 15.0873 5.08678 15.3735 5.08678C15.6598 5.08678 15.9433 5.14317 16.2077 5.25272C16.4722 5.36227 16.7125 5.52284 16.915 5.72526C17.1174 5.92768 17.278 6.16799 17.3875 6.43247C17.4971 6.69695 17.5534 6.98041 17.5534 7.26668C17.5534 7.55295 17.4971 7.83642 17.3875 8.10089C17.278 8.36537 17.1174 8.60568 16.915 8.80811L7.66642 18.0457" stroke="black" stroke-width="1.45397" stroke-linecap="round" stroke-linejoin="round"/>
</svg>
