<svg width="20" height="19" viewBox="0 0 20 19" fill="none" xmlns="http://www.w3.org/2000/svg">
<path d="M19 9.287H6.645M2.284 9.287H0.5M2.284 9.287C2.284 8.70883 2.51368 8.15434 2.92251 7.74551C3.33134 7.33668 3.88583 7.107 4.464 7.107C5.04217 7.107 5.59666 7.33668 6.00549 7.74551C6.41432 8.15434 6.644 8.70883 6.644 9.287C6.644 9.86517 6.41432 10.4197 6.00549 10.8285C5.59666 11.2373 5.04217 11.467 4.464 11.467C3.88583 11.467 3.33134 11.2373 2.92251 10.8285C2.51368 10.4197 2.284 9.86517 2.284 9.287ZM19 15.894H13.252M13.252 15.894C13.252 16.4723 13.0218 17.0274 12.6128 17.4363C12.2039 17.8453 11.6493 18.075 11.071 18.075C10.4928 18.075 9.93834 17.8443 9.52951 17.4355C9.12068 17.0267 8.891 16.4722 8.891 15.894M13.252 15.894C13.252 15.3157 13.0218 14.7616 12.6128 14.3527C12.2039 13.9437 11.6493 13.714 11.071 13.714C10.4928 13.714 9.93834 13.9437 9.52951 14.3525C9.12068 14.7613 8.891 15.3158 8.891 15.894M8.891 15.894H0.5M19 2.68H15.895M11.534 2.68H0.5M11.534 2.68C11.534 2.10183 11.7637 1.54734 12.1725 1.13851C12.5813 0.729678 13.1358 0.5 13.714 0.5C14.0003 0.5 14.2838 0.556387 14.5483 0.665943C14.8127 0.775498 15.0531 0.936075 15.2555 1.13851C15.4579 1.34094 15.6185 1.58126 15.7281 1.84575C15.8376 2.11024 15.894 2.39372 15.894 2.68C15.894 2.96628 15.8376 3.24976 15.7281 3.51425C15.6185 3.77874 15.4579 4.01906 15.2555 4.22149C15.0531 4.42392 14.8127 4.5845 14.5483 4.69406C14.2838 4.80361 14.0003 4.86 13.714 4.86C13.1358 4.86 12.5813 4.63032 12.1725 4.22149C11.7637 3.81266 11.534 3.25817 11.534 2.68Z" stroke="#545454" stroke-miterlimit="10" stroke-linecap="round"/>
</svg>
