<svg width="24" height="24" viewBox="0 0 24 24" fill="none" xmlns="http://www.w3.org/2000/svg">
<path d="M0.976722 0H9.64806C9.90688 0.000578522 10.1549 0.104835 10.3376 0.289869C10.4287 0.381042 10.5012 0.489442 10.5508 0.608877C10.6004 0.728313 10.6262 0.856443 10.6267 0.98595V9.69978C10.6267 9.96127 10.5238 10.212 10.3407 10.3969C10.1575 10.5819 9.90905 10.6857 9.65001 10.6857H0.976722C0.847906 10.686 0.720317 10.6605 0.601301 10.6107C0.482285 10.561 0.374193 10.488 0.283249 10.3959L0.265668 10.3742C0.0953903 10.1916 0.000392042 9.95049 0 9.69978L0 0.98595C0 0.72446 0.102904 0.47368 0.286075 0.288778C0.469246 0.103877 0.717679 0 0.976722 0ZM14.3559 13.3162H23.0233C23.2815 13.3188 23.5285 13.4235 23.7111 13.6079C23.8937 13.7922 23.9975 14.0415 24 14.3022V23.0121C24 23.2736 23.8971 23.5243 23.7139 23.7092C23.5308 23.8941 23.2823 23.998 23.0233 23.998H14.3559C14.1008 23.9975 13.8562 23.8963 13.6741 23.716L13.6565 23.6944C13.4829 23.5121 13.3862 23.2689 13.3869 23.016V14.3061C13.3867 14.1761 13.412 14.0473 13.4613 13.9272C13.5105 13.807 13.5829 13.6979 13.6741 13.6061L13.6936 13.5864C13.8748 13.4121 14.1154 13.3147 14.3656 13.3143L14.3559 13.3162ZM0.976722 13.3162H9.64806C9.90688 13.3168 10.1549 13.4211 10.3376 13.6061C10.4295 13.6971 10.5024 13.8058 10.5521 13.9256C10.6017 14.0455 10.6271 14.1742 10.6267 14.3042V23.014C10.6267 23.2755 10.5238 23.5263 10.3407 23.7112C10.1575 23.8961 9.90905 24 9.65001 24H0.976722C0.847906 24.0002 0.720317 23.9747 0.601301 23.925C0.482285 23.8752 0.374193 23.8022 0.283249 23.7101L0.265668 23.6884C0.0958511 23.5064 0.000887734 23.2661 0 23.016L0 14.3061C0 14.0446 0.102904 13.7939 0.286075 13.609C0.469246 13.4241 0.717679 13.3202 0.976722 13.3202V13.3162ZM14.3559 0H23.0233C23.2823 0 23.5308 0.103877 23.7139 0.288778C23.8971 0.47368 24 0.72446 24 0.98595V9.69978C24 9.96127 23.8971 10.212 23.7139 10.3969C23.5308 10.5819 23.2823 10.6857 23.0233 10.6857H14.3559C14.0968 10.6857 13.8484 10.5819 13.6652 10.3969C13.482 10.212 13.3791 9.96127 13.3791 9.69978V0.98595C13.3804 0.856028 13.4072 0.727649 13.4578 0.608191C13.5084 0.488733 13.5819 0.380553 13.6741 0.289869L13.6936 0.272122C13.8724 0.100187 14.109 0.00295931 14.3559 0Z" fill="white"/>
</svg>
