<svg width="49" height="49" viewBox="0 0 49 49" fill="none" xmlns="http://www.w3.org/2000/svg">
<path d="M46.875 24.3747H39.47C38.945 24.3747 38.68 24.3747 38.4575 24.4797C38.2541 24.576 38.0805 24.7254 37.955 24.9122C37.8025 25.1322 37.725 25.4247 37.5675 26.0122L33.025 43.1272C32.4425 45.3147 32.1525 46.4097 31.715 46.6922C31.5352 46.8118 31.3239 46.8752 31.108 46.8743C30.8921 46.8734 30.6813 46.8083 30.5025 46.6872C30.065 46.3997 29.7825 45.3022 29.2175 43.1122L19.535 5.63717C18.9675 3.44717 18.685 2.34967 18.2475 2.06217C18.0687 1.94105 17.8579 1.8759 17.642 1.87501C17.4261 1.87412 17.2148 1.93753 17.035 2.05717C16.5975 2.33967 16.3075 3.43217 15.725 5.62217L11.1825 22.7347C11.025 23.3247 10.9475 23.6172 10.7975 23.8347C10.6716 24.0227 10.4971 24.1731 10.2925 24.2697C10.07 24.3747 9.8075 24.3747 9.28 24.3747H1.875" stroke="#BA82CC" stroke-width="3.75" stroke-linecap="round" stroke-linejoin="round"/>
</svg>
