<svg width="45" height="44" viewBox="0 0 45 44" fill="none" xmlns="http://www.w3.org/2000/svg">
<path d="M0 36.272V31.738H6.23426L5.32746 30.9446C3.36272 29.2065 1.98363 27.2229 1.19018 24.9937C0.396726 22.7645 0 20.5164 0 18.2494C0 14.0554 1.25592 10.3239 3.76776 7.05491C6.2796 3.78589 9.55768 1.62317 13.602 0.566751V5.32746C10.8816 6.30982 8.69018 7.98211 7.02771 10.3443C5.36524 12.7065 4.534 15.3416 4.534 18.2494C4.534 19.9496 4.85516 21.603 5.49748 23.2096C6.1398 24.8161 7.14106 26.2987 8.50126 27.6574L9.06801 28.2242V22.67H13.602V36.272H0ZM40.636 15.869H36.0453C35.8564 14.5466 35.4506 13.2809 34.828 12.0718C34.2053 10.8627 33.3642 9.71033 32.3048 8.61461L31.738 8.04786V13.602H27.204V0H40.806V4.534H34.5718L35.4786 5.32746C37.0277 6.91436 38.2179 8.59572 39.0491 10.3715C39.8804 12.1474 40.4093 13.9798 40.636 15.869ZM31.738 43.073L31.0579 39.6725C30.6045 39.4836 30.1798 39.2856 29.7839 39.0786C29.3879 38.8715 28.9814 38.6161 28.5642 38.3123L25.2771 39.3325L23.0101 35.4786L25.6171 33.2116C25.5416 32.6826 25.5038 32.1914 25.5038 31.738C25.5038 31.2846 25.5416 30.7934 25.6171 30.2645L23.0101 27.9975L25.2771 24.1436L28.5642 25.1637C28.9798 24.8615 29.3864 24.6068 29.7839 24.3997C30.1814 24.1927 30.606 23.994 31.0579 23.8035L31.738 20.403H36.272L36.9521 23.8035C37.4055 23.9924 37.831 24.2002 38.2285 24.4269C38.6259 24.6536 39.0317 24.937 39.4458 25.2771L42.733 24.1436L45 28.1108L42.3929 30.3778C42.4685 30.8312 42.5063 31.3035 42.5063 31.7947C42.5063 32.2859 42.4685 32.7582 42.3929 33.2116L45 35.4786L42.733 39.3325L39.4458 38.3123C39.0302 38.6146 38.6244 38.87 38.2285 39.0786C37.8325 39.2872 37.407 39.4851 36.9521 39.6725L36.272 43.073H31.738ZM34.005 36.272C35.2519 36.272 36.3196 35.8285 37.2083 34.9413C38.097 34.0542 38.5406 32.9864 38.539 31.738C38.5375 30.4897 38.094 29.4227 37.2083 28.537C36.3227 27.6514 35.2549 27.2071 34.005 27.204C32.7552 27.201 31.6882 27.6453 30.804 28.537C29.9199 29.4287 29.4756 30.4957 29.471 31.738C29.4665 32.9804 29.9108 34.0481 30.804 34.9413C31.6972 35.8345 32.7642 36.2781 34.005 36.272Z" fill="#BA82CC"/>
</svg>
